Coordinates
version=1
nRows=31
nColumns=38
inDegrees=no

Units are S.I. units (second, meters, Newtons, ...)
If the header above contains a line with 'inDegrees', this indicates whether rotational values are in degrees (yes) or radians (no).

endheader
time	pelvis_tilt	pelvis_list	pelvis_rotation	pelvis_tx	pelvis_ty	pelvis_tz	hip_flexion_r	hip_adduction_r	hip_rotation_r	knee_angle_r	ankle_angle_r	subtalar_angle_r	mtp_angle_r	hip_flexion_l	hip_adduction_l	hip_rotation_l	knee_angle_l	ankle_angle_l	subtalar_angle_l	mtp_angle_l	lumbar_extension	lumbar_bending	lumbar_rotation	arm_flex_r	arm_add_r	arm_rot_r	elbow_flex_r	pro_sup_r	wrist_flex_r	wrist_dev_r	arm_flex_l	arm_add_l	arm_rot_l	elbow_flex_l	pro_sup_l	wrist_flex_l	wrist_dev_l
1.5	-2.01244	1.43091	-2.71417	0.872323	1.04941	0.99277	0.384808	-0.270604	-0.0148341	1.42292	-0.20818	0	0	0.187641	0.155907	-0.37134	0.451212	0.141636	0	0	-0.231492	-0.143067	0.0165233	-0.0889713	-0.1856	0.0292727	0.42717	1.43497	0	0	-0.03991	-0.345671	0.500593	0.515673	1.08715	0	0
1.51	-2.03419	1.44403	-2.69669	0.871657	1.05855	0.993337	0.410496	-0.250372	-0.00551726	1.42604	-0.203007	0	0	0.176243	0.146774	-0.360802	0.44377	0.15259	0	0	-0.226375	-0.128226	0.0212431	-0.0870101	-0.191463	0.033288	0.427988	1.43411	0	0	-0.039039	-0.341835	0.504748	0.513871	1.08575	0	0
1.52	-2.05032	1.44744	-2.68084	0.870767	1.06712	0.994863	0.431024	-0.243229	0.000230189	1.42348	-0.198226	0	0	0.160163	0.145872	-0.359787	0.432578	0.156378	0	0	-0.228065	-0.123177	0.0191892	-0.0818004	-0.194766	0.0389768	0.427612	1.43097	0	0	-0.0353787	-0.340664	0.510501	0.511275	1.08232	0	0
1.53	-2.07604	1.45107	-2.65456	0.869496	1.07544	0.996571	0.462059	-0.254668	-0.0143722	1.4293	-0.211819	0	0	0.142725	0.145497	-0.355397	0.419232	0.158498	0	0	-0.231543	-0.116466	0.0161527	-0.0764331	-0.200144	0.0484897	0.429222	1.42308	0	0	-0.0301894	-0.337863	0.51817	0.506212	1.07305	0	0
1.54	-2.08336	1.44382	-2.64415	0.868348	1.08319	0.999168	0.476708	-0.260646	-0.0102752	1.41866	-0.203109	0	0	0.119833	0.154122	-0.363496	0.400335	0.153335	0	0	-0.2414	-0.12207	0.00744965	-0.0662019	-0.20009	0.0523042	0.425566	1.41891	0	0	-0.0230058	-0.338091	0.522754	0.501822	1.06608	0	0
1.55	-2.11387	1.46075	-2.61332	0.86754	1.09181	0.999309	0.497693	-0.240716	-0.014826	1.40707	-0.189771	0	0	0.112461	0.140656	-0.351035	0.395361	0.164519	0	0	-0.235553	-0.103159	0.00746136	-0.065208	-0.206173	0.0558611	0.431118	1.41838	0	0	-0.022068	-0.333999	0.525115	0.499594	1.06368	0	0
1.56	-2.14173	1.4667	-2.58274	0.866542	1.09993	1.00054	0.512525	-0.23341	-0.0194017	1.39032	-0.175496	0	0	0.0981307	0.136477	-0.348732	0.384734	0.168639	0	0	-0.237839	-0.094939	0.00264864	-0.0606165	-0.209719	0.0620047	0.434891	1.41606	0	0	-0.0175198	-0.330852	0.526783	0.495356	1.0593	0	0
1.57	-2.18247	1.47147	-2.53899	0.865594	1.10806	1.00182	0.523994	-0.227022	-0.0255825	1.36986	-0.158102	0	0	0.0820599	0.132752	-0.344871	0.373669	0.171647	0	0	-0.241778	-0.0871472	-0.00250286	-0.0549205	-0.212592	0.0686149	0.436529	1.41346	0	0	-0.0123166	-0.32725	0.528157	0.489989	1.05462	0	0
1.58	-2.22155	1.47541	-2.49691	0.864689	1.11614	1.00302	0.533987	-0.22176	-0.0328613	1.34583	-0.139584	0	0	0.0658529	0.129846	-0.339995	0.362311	0.173924	0	0	-0.245836	-0.0803106	-0.00749225	-0.0483099	-0.214793	0.0758049	0.43619	1.40876	0	0	-0.0064868	-0.323362	0.529477	0.483056	1.05126	0	0
1.59	-2.25745	1.4788	-2.45837	0.86386	1.1242	1.00405	0.542842	-0.217423	-0.0408977	1.31836	-0.122867	0	0	0.0500021	0.127521	-0.335489	0.350921	0.176367	0	0	-0.249752	-0.0743593	-0.011819	-0.0408115	-0.216209	0.0814262	0.43364	1.40386	0	0	-0.000376667	-0.319221	0.529917	0.475566	1.05018	0	0
1.6	-2.29094	1.48228	-2.42249	0.863098	1.13221	1.0049	0.550733	-0.213464	-0.0499105	1.28763	-0.107421	0	0	0.0350354	0.125223	-0.331099	0.339975	0.178886	0	0	-0.25334	-0.0686231	-0.0155627	-0.0322583	-0.216976	0.0860735	0.428588	1.39967	0	0	0.0059423	-0.31473	0.529279	0.467768	1.04971	0	0
1.61	-2.32185	1.48558	-2.38959	0.862439	1.14018	1.00557	0.557579	-0.209867	-0.0599496	1.25384	-0.091929	0	0	0.0208364	0.12301	-0.326422	0.330055	0.181278	0	0	-0.256834	-0.0633334	-0.0187245	-0.0230002	-0.217155	0.0902306	0.421695	1.39746	0	0	0.0125062	-0.310266	0.527792	0.459432	1.0504	0	0
1.62	-2.37578	1.4898	-2.33809	0.861298	1.14811	1.00597	0.564259	-0.21446	-0.069763	1.21566	-0.0711601	0	0	0.00844246	0.124572	-0.314207	0.322445	0.178556	0	0	-0.260785	-0.0553922	-0.0192238	-0.0122232	-0.218773	0.0943045	0.414123	1.39672	0	0	0.0177843	-0.304362	0.524115	0.45129	1.05364	0	0
1.63	-2.39357	1.49312	-2.31938	0.860863	1.15607	1.00619	0.569447	-0.212088	-0.083541	1.17617	-0.0574536	0	0	-0.00376048	0.123053	-0.309806	0.313791	0.180638	0	0	-0.263156	-0.0513681	-0.0206699	-0.00372395	-0.218756	0.0982732	0.408057	1.39628	0	0	0.0237721	-0.301258	0.523047	0.445116	1.05591	0	0
1.64	-2.38561	1.49566	-2.32141	0.86098	1.16404	1.00634	0.57212	-0.202592	-0.100258	1.13497	-0.051373	0	0	-0.0169267	0.11725	-0.31301	0.303684	0.187748	0	0	-0.264974	-0.0499909	-0.0240322	0.00313647	-0.21703	0.101942	0.401447	1.39529	0	0	0.0315321	-0.299335	0.521681	0.438157	1.05841	0	0
1.65	-2.41805	1.49917	-2.28766	0.860576	1.17205	1.00637	0.573069	-0.200653	-0.119044	1.08966	-0.0408392	0	0	-0.0294271	0.114704	-0.309413	0.294966	0.190904	0	0	-0.268046	-0.0448518	-0.024571	0.0111533	-0.217483	0.106233	0.394868	1.39333	0	0	0.0384745	-0.29463	0.515896	0.429132	1.06644	0	0
1.66	-2.43883	1.50217	-2.26645	0.860309	1.18015	1.0062	0.573258	-0.199364	-0.138657	1.04269	-0.0300083	0	0	-0.0414626	0.113236	-0.306708	0.286437	0.193943	0	0	-0.270633	-0.0411836	-0.0239545	0.0168461	-0.218222	0.108604	0.392247	1.39196	0	0	0.0441038	-0.291387	0.510128	0.424098	1.07411	0	0
1.67	-2.47821	1.50434	-2.22641	0.860167	1.18843	1.00605	0.569577	-0.197696	-0.161834	0.992928	-0.0195747	0	0	-0.0554281	0.111243	-0.302351	0.277334	0.196431	0	0	-0.274506	-0.0372447	-0.0229687	0.0206365	-0.219088	0.108977	0.392467	1.39127	0	0	0.0493426	-0.288732	0.503711	0.419993	1.0833	0	0
1.68	-2.53408	1.50597	-2.16972	0.860118	1.19684	1.00589	0.562592	-0.195365	-0.188424	0.940374	-0.0104123	0	0	-0.0703355	0.10836	-0.298229	0.268611	0.199899	0	0	-0.27919	-0.0328115	-0.0215847	0.0226327	-0.220357	0.108606	0.395589	1.38986	0	0	0.0542881	-0.286536	0.497989	0.416742	1.09145	0	0
1.69	-2.60685	1.50723	-2.0961	0.860137	1.20538	1.00568	0.552912	-0.191806	-0.217808	0.885529	-0.00222391	0	0	-0.0855998	0.104534	-0.294916	0.260439	0.203984	0	0	-0.284352	-0.0275761	-0.0198074	0.0233475	-0.222243	0.108488	0.400815	1.38741	0	0	0.0585395	-0.28464	0.491872	0.414864	1.09921	0	0
1.7	-2.69294	1.50816	-2.00863	0.860217	1.21407	1.00539	0.541162	-0.187008	-0.249487	0.82933	0.00567	0	0	-0.100798	0.0998512	-0.291029	0.25323	0.207111	0	0	-0.289532	-0.0216631	-0.0181976	0.0231664	-0.2241	0.108331	0.406704	1.3852	0	0	0.0620642	-0.283216	0.48618	0.414008	1.10606	0	0
1.71	-2.78225	1.50865	-1.9175	0.860369	1.22296	1.00498	0.527962	-0.181333	-0.283193	0.772422	0.0125121	0	0	-0.115706	0.0946977	-0.287601	0.247087	0.210334	0	0	-0.294304	-0.0156598	-0.0170054	0.0224824	-0.225557	0.108145	0.412338	1.38337	0	0	0.0647661	-0.282145	0.480548	0.413595	1.113	0	0
1.72	-2.83796	1.5102	-1.86067	0.860695	1.23197	1.00426	0.51704	-0.175418	-0.31505	0.716395	0.0183247	0	0	-0.127768	0.0907729	-0.286006	0.242489	0.214391	0	0	-0.296283	-0.0118705	-0.0154131	0.0215197	-0.225864	0.106992	0.416131	1.38286	0	0	0.0665663	-0.282117	0.477408	0.414215	1.11596	0	0
1.73	-2.94075	1.50934	-1.75575	0.861116	1.24125	1.0037	0.500444	-0.166248	-0.350652	0.65811	0.0227938	0	0	-0.142929	0.0841618	-0.282916	0.238171	0.218682	0	0	-0.3009	-0.00571435	-0.0142644	0.0203787	-0.226222	0.106183	0.420183	1.38231	0	0	0.0682839	-0.282105	0.474276	0.4148	1.11925	0	0
1.74	-3.05229	1.50691	-1.64245	0.861737	1.25073	1.00315	0.481729	-0.154103	-0.386185	0.599579	0.0287072	0	0	-0.158739	0.0764145	-0.281736	0.235061	0.223571	0	0	-0.306146	0.000937304	-0.0128067	0.0194134	-0.22647	0.106622	0.423587	1.38148	0	0	0.0696052	-0.282398	0.471601	0.41526	1.12288	0	0
1.75	3.11842	1.50336	-1.52753	0.8625	1.26042	1.00256	0.461911	-0.139499	-0.419493	0.542057	0.0376778	0	0	-0.174688	0.0673171	-0.280377	0.233093	0.229703	0	0	-0.311197	0.00830736	-0.0119816	0.0181908	-0.226563	0.108104	0.426827	1.38	0	0	0.0705409	-0.282995	0.469322	0.415536	1.12665	0	0
1.76	3.0068	1.49769	-1.41337	0.863346	1.27033	1.00198	0.44026	-0.12181	-0.448873	0.485736	0.0478035	0	0	-0.191948	0.0566122	-0.279357	0.231638	0.23604	0	0	-0.317051	0.016801	-0.0110801	0.016548	-0.22665	0.109801	0.430264	1.37739	0	0	0.071087	-0.283386	0.466435	0.415702	1.13125	0	0
1.77	2.92092	1.49247	-1.32542	0.864283	1.2804	1.00116	0.420913	-0.103632	-0.473158	0.43391	0.0559476	0	0	-0.207875	0.0468482	-0.278386	0.230604	0.241958	0	0	-0.321208	0.0239929	-0.0100947	0.0148235	-0.226006	0.110865	0.432295	1.37374	0	0	0.0710972	-0.283875	0.463438	0.415199	1.13661	0	0
1.78	2.84798	1.48745	-1.25087	0.865335	1.29063	1.00022	0.403028	-0.0843844	-0.489801	0.38542	0.0601682	0	0	-0.222415	0.0371622	-0.277596	0.231458	0.249083	0	0	-0.324178	0.0305368	-0.00893648	0.013107	-0.225053	0.112972	0.433059	1.36895	0	0	0.0707753	-0.284196	0.459616	0.413401	1.14361	0	0
1.79	2.83863	1.48523	-1.23882	0.866348	1.30153	0.998683	0.388635	-0.0685983	-0.486627	0.341928	0.066219	0	0	-0.235807	0.0328212	-0.275711	0.233878	0.256258	0	0	-0.32317	0.0309302	-0.0104204	0.00917999	-0.222093	0.112778	0.432535	1.36626	0	0	0.0675728	-0.287043	0.458938	0.413762	1.1471	0	0
1.8	2.78744	1.48042	-1.1863	0.867478	1.3122	0.99756	0.375485	-0.0531911	-0.496444	0.3108	0.0674033	0	0	-0.248553	0.0235357	-0.277233	0.238962	0.262377	0	0	-0.324709	0.0360334	-0.00924658	0.00680667	-0.219685	0.111123	0.430795	1.3672	0	0	0.0664755	-0.287663	0.457785	0.411313	1.14939	0	0
